<svg width="74" height="74" viewBox="0 0 74 74" fill="none" xmlns="http://www.w3.org/2000/svg">
<path d="M0 22C0 9.84974 9.84974 0 22 0H52C64.1503 0 74 9.84974 74 22V52C74 64.1503 64.1503 74 52 74H22C9.84974 74 0 64.1503 0 52V22Z" fill="#4F5BD5"/>
<path d="M14.1221 29.3994C13.7499 26.6631 15.6664 24.1433 18.4026 23.7712L32.2749 21.8844C35.0111 21.5123 37.531 23.4287 37.9031 26.165L40.7333 46.9734C41.1054 49.7096 39.1889 52.2295 36.4527 52.6016L22.5804 54.4883C19.8442 54.8605 17.3244 52.944 16.9522 50.2078L14.1221 29.3994Z" fill="#CCD1FF"/>
<path d="M30.4806 22.6977C30.7788 19.9524 33.246 17.9686 35.9913 18.2668L49.9094 19.7784C52.6547 20.0765 54.6385 22.5437 54.3403 25.289L52.0729 46.1662C51.7748 48.9115 49.3076 50.8953 46.5623 50.5971L32.6441 49.0855C29.8989 48.7874 27.9151 46.3202 28.2132 43.5749L30.4806 22.6977Z" fill="white"/>
<path d="M37.834 37.7634L38.5899 30.8043L44.5151 30.2743L43.7592 37.2334" stroke="#4F5BD5" stroke-width="1.16667" stroke-linecap="round" stroke-linejoin="round"/>
<path d="M36.2269 39.0557C37.0276 39.1427 37.7472 38.5641 37.8342 37.7634C37.9212 36.9627 37.3426 36.2431 36.5418 36.1561C35.7411 36.0691 35.0215 36.6478 34.9346 37.4485C34.8476 38.2492 35.4262 38.9688 36.2269 39.0557Z" stroke="#4F5BD5" stroke-width="1.16667" stroke-linecap="round" stroke-linejoin="round"/>
<path d="M42.152 38.5257C42.9527 38.6127 43.6723 38.0341 43.7592 37.2334C43.8462 36.4327 43.2676 35.7131 42.4669 35.6261C41.6662 35.5391 40.9466 36.1177 40.8596 36.9184C40.7727 37.7192 41.3513 38.4387 42.152 38.5257Z" stroke="#4F5BD5" stroke-width="1.16667" stroke-linecap="round" stroke-linejoin="round"/>
</svg>
