<svg width="42" height="38" viewBox="0 0 42 38" fill="none" xmlns="http://www.w3.org/2000/svg">
<path d="M0.673838 11.6725C0.301688 8.93624 2.21815 6.4164 4.95439 6.04425L18.8267 4.1575C21.5629 3.78535 24.0827 5.70182 24.4549 8.43805L27.285 29.2465C27.6572 31.9827 25.7407 34.5025 23.0045 34.8747L9.13218 36.7614C6.39595 37.1336 3.87611 35.2171 3.50396 32.4809L0.673838 11.6725Z" fill="#CCD1FF"/>
<path d="M17.0324 4.97077C17.3306 2.22549 19.7978 0.241704 22.543 0.539861L36.4612 2.05147C39.2065 2.34963 41.1903 4.81682 40.8921 7.5621L38.6247 28.4393C38.3265 31.1846 35.8593 33.1684 33.1141 32.8702L19.1959 31.3586C16.4506 31.0605 14.4668 28.5933 14.765 25.848L17.0324 4.97077Z" fill="white"/>
<path d="M24.3858 20.0365L25.1416 13.0774L31.0668 12.5474L30.311 19.5065" stroke="#4F5BD5" stroke-width="1.16667" stroke-linecap="round" stroke-linejoin="round"/>
<path d="M22.7787 21.3288C23.5794 21.4158 24.299 20.8372 24.386 20.0365C24.4729 19.2358 23.8943 18.5162 23.0936 18.4292C22.2929 18.3422 21.5733 18.9208 21.4863 19.7216C21.3994 20.5223 21.978 21.2419 22.7787 21.3288Z" stroke="#4F5BD5" stroke-width="1.16667" stroke-linecap="round" stroke-linejoin="round"/>
<path d="M28.7037 20.7988C29.5044 20.8858 30.224 20.3072 30.311 19.5065C30.398 18.7057 29.8194 17.9862 29.0187 17.8992C28.2179 17.8122 27.4984 18.3908 27.4114 19.1915C27.3244 19.9922 27.903 20.7118 28.7037 20.7988Z" stroke="#4F5BD5" stroke-width="1.16667" stroke-linecap="round" stroke-linejoin="round"/>
</svg>
